<svg width="26" height="26" viewBox="0 0 26 26" fill="none" xmlns="http://www.w3.org/2000/svg">
<path fill-rule="evenodd" clip-rule="evenodd" d="M2.33334 0C1.04467 0 0 1.04467 0 2.33334V23.6667C0 24.9553 1.04467 26 2.33334 26H23.6667C24.9553 26 26 24.9553 26 23.6667V0H2.33334ZM16.2499 0.000332731L25.9999 0.000331879V9.75033L16.2499 0.000332731Z" fill="#F2F2F2"/>
<path d="M16.25 9.75L26 9.75L16.25 0L16.25 9.75Z" fill="#BDBDBD"/>
<rect x="1.62549" y="13" width="22.75" height="10.5625" rx="1.28336" fill="#EF4444"/>
<path d="M5.45703 21.3281V15.2344H7.70053C8.16013 15.2344 8.54574 15.3217 8.85733 15.4962C9.17088 15.6708 9.4075 15.9108 9.56719 16.2163C9.72883 16.5198 9.80965 16.8649 9.80965 17.2517C9.80965 17.6425 9.72883 17.9897 9.56719 18.2932C9.40555 18.5966 9.16698 18.8357 8.85149 19.0102C8.536 19.1828 8.14748 19.2691 7.68592 19.2691H6.19902V18.3616H7.53986C7.80861 18.3616 8.02868 18.314 8.20006 18.2188C8.37144 18.1235 8.49802 17.9926 8.57982 17.826C8.66356 17.6594 8.70543 17.468 8.70543 17.2517C8.70543 17.0355 8.66356 16.8451 8.57982 16.6805C8.49802 16.5158 8.37046 16.3879 8.19714 16.2966C8.02576 16.2034 7.80472 16.1568 7.53402 16.1568H6.5408V21.3281H5.45703Z" fill="white"/>
<path d="M12.7783 21.3281H10.751V15.2344H12.8192C13.4132 15.2344 13.9235 15.3564 14.35 15.6004C14.7784 15.8424 15.1075 16.1905 15.3373 16.6447C15.5671 17.099 15.682 17.6425 15.682 18.2753C15.682 18.9101 15.5662 19.4556 15.3344 19.9118C15.1046 20.368 14.7726 20.7182 14.3383 20.9621C13.9059 21.2061 13.386 21.3281 12.7783 21.3281ZM11.8348 20.373H12.7258C13.1425 20.373 13.4901 20.2956 13.7686 20.1409C14.0471 19.9842 14.2565 19.7511 14.3967 19.4417C14.5369 19.1302 14.607 18.7415 14.607 18.2753C14.607 17.8091 14.5369 17.4223 14.3967 17.1149C14.2565 16.8054 14.0491 16.5743 13.7745 16.4216C13.5018 16.2669 13.163 16.1895 12.7579 16.1895H11.8348V20.373Z" fill="white"/>
<path d="M16.7118 21.3281V15.2344H20.5444V16.1597H17.7955V17.8141H20.2815V18.7395H17.7955V21.3281H16.7118Z" fill="white"/>
<path d="M5.45703 21.3281V15.2344H7.70053C8.16013 15.2344 8.54574 15.3217 8.85733 15.4962C9.17088 15.6708 9.4075 15.9108 9.56719 16.2163C9.72883 16.5198 9.80965 16.8649 9.80965 17.2517C9.80965 17.6425 9.72883 17.9897 9.56719 18.2932C9.40555 18.5966 9.16698 18.8357 8.85149 19.0102C8.536 19.1828 8.14748 19.2691 7.68592 19.2691H6.19902V18.3616H7.53986C7.80861 18.3616 8.02868 18.314 8.20006 18.2188C8.37144 18.1235 8.49802 17.9926 8.57982 17.826C8.66356 17.6594 8.70543 17.468 8.70543 17.2517C8.70543 17.0355 8.66356 16.8451 8.57982 16.6805C8.49802 16.5158 8.37046 16.3879 8.19714 16.2966C8.02576 16.2034 7.80472 16.1568 7.53402 16.1568H6.5408V21.3281H5.45703Z" stroke="white" stroke-width="0.583334"/>
<path d="M12.7783 21.3281H10.751V15.2344H12.8192C13.4132 15.2344 13.9235 15.3564 14.35 15.6004C14.7784 15.8424 15.1075 16.1905 15.3373 16.6447C15.5671 17.099 15.682 17.6425 15.682 18.2753C15.682 18.9101 15.5662 19.4556 15.3344 19.9118C15.1046 20.368 14.7726 20.7182 14.3383 20.9621C13.9059 21.2061 13.386 21.3281 12.7783 21.3281ZM11.8348 20.373H12.7258C13.1425 20.373 13.4901 20.2956 13.7686 20.1409C14.0471 19.9842 14.2565 19.7511 14.3967 19.4417C14.5369 19.1302 14.607 18.7415 14.607 18.2753C14.607 17.8091 14.5369 17.4223 14.3967 17.1149C14.2565 16.8054 14.0491 16.5743 13.7745 16.4216C13.5018 16.2669 13.163 16.1895 12.7579 16.1895H11.8348V20.373Z" stroke="white" stroke-width="0.583334"/>
<path d="M16.7118 21.3281V15.2344H20.5444V16.1597H17.7955V17.8141H20.2815V18.7395H17.7955V21.3281H16.7118Z" stroke="white" stroke-width="0.583334"/>
</svg>
